<svg width="320" height="120" viewBox="0 0 320 120" fill="none" xmlns="http://www.w3.org/2000/svg">
  <rect width="320" height="120" rx="16" fill="#1f2530"/>
  <path d="M64 32c-14.36 0-26 11.64-26 26 0 8.28 3.94 15.66 10.06 20.4L44 96l16-9 16 9-4.06-17.6C86.06 73.66 90 66.28 90 58c0-14.36-11.64-26-26-26zm0 12a14 14 0 110 28 14 14 0 010-28z" stroke="#f8fafc" stroke-width="4" stroke-linecap="round" stroke-linejoin="round" fill="none"/>
  <circle cx="83" cy="46" r="4" fill="#f8fafc"/>
  <path d="M64 74c7 4 14 4 21 0" stroke="#f8fafc" stroke-width="4" stroke-linecap="round"/>
  <path d="M206 38c7 0 12 4.5 12 11.5 0 5-2.6 8.4-7.6 9.8v.2c5.8 1 9.6 5.4 9.6 11.7 0 8-6.3 13.3-14.8 13.3h-16.5V38z" fill="#f8fafc"/>
  <path d="M211 53c0-3.6-2.5-5.8-6.3-5.8h-5v11.6h4.4c4.8 0 6.9-2.6 6.9-5.8zm1.2 19.3c0-3.9-2.8-6.3-7.4-6.3h-5v12.7h5.2c4.8 0 7.2-2.5 7.2-6.4z" fill="#1f2530"/>
  <path d="M234 38c7 0 12 4.5 12 11.5 0 5-2.6 8.4-7.6 9.8v.2c5.8 1 9.6 5.4 9.6 11.7 0 8-6.3 13.3-14.8 13.3h-16.5V38z" fill="#f8fafc"/>
  <path d="M239 53c0-3.6-2.5-5.8-6.3-5.8h-5v11.6h4.4c4.8 0 6.9-2.6 6.9-5.8zm1.2 19.3c0-3.9-2.8-6.3-7.4-6.3h-5v12.7h5.2c4.8 0 7.2-2.5 7.2-6.4z" fill="#1f2530"/>
</svg>
